<svg width="23" height="23" viewBox="0 0 23 23" fill="none" xmlns="http://www.w3.org/2000/svg">
<path d="M20.4445 4.47222H2.55564C2.38619 4.47222 2.22369 4.53953 2.10387 4.65935C1.98406 4.77916 1.91675 4.94167 1.91675 5.11111C1.91675 5.28055 1.98406 5.44306 2.10387 5.56287C2.22369 5.68269 2.38619 5.75 2.55564 5.75H20.4445C20.614 5.75 20.7765 5.68269 20.8963 5.56287C21.0161 5.44306 21.0834 5.28055 21.0834 5.11111C21.0834 4.94167 21.0161 4.77916 20.8963 4.65935C20.7765 4.53953 20.614 4.47222 20.4445 4.47222Z" fill="#5F6368"/>
<path d="M20.4445 10.8611H2.55564C2.38619 10.8611 2.22369 10.9284 2.10387 11.0482C1.98406 11.168 1.91675 11.3306 1.91675 11.5C1.91675 11.6694 1.98406 11.8319 2.10387 11.9518C2.22369 12.0716 2.38619 12.1389 2.55564 12.1389H20.4445C20.614 12.1389 20.7765 12.0716 20.8963 11.9518C21.0161 11.8319 21.0834 11.6694 21.0834 11.5C21.0834 11.3306 21.0161 11.168 20.8963 11.0482C20.7765 10.9284 20.614 10.8611 20.4445 10.8611Z" fill="#5F6368"/>
<path d="M20.4445 17.25H2.55564C2.38619 17.25 2.22369 17.3173 2.10387 17.4371C1.98406 17.5569 1.91675 17.7194 1.91675 17.8889C1.91675 18.0583 1.98406 18.2208 2.10387 18.3406C2.22369 18.4605 2.38619 18.5278 2.55564 18.5278H20.4445C20.614 18.5278 20.7765 18.4605 20.8963 18.3406C21.0161 18.2208 21.0834 18.0583 21.0834 17.8889C21.0834 17.7194 21.0161 17.5569 20.8963 17.4371C20.7765 17.3173 20.614 17.25 20.4445 17.25Z" fill="#5F6368"/>
</svg>
